<svg id="Group_1" data-name="Group 1" xmlns="http://www.w3.org/2000/svg" width="190.829" height="108.627" viewBox="0 0 190.829 108.627">
  <path id="Path_1" data-name="Path 1" d="M163.413,389.459c-22.408,15.923-42.742,3.8-45.363,2.1a23.419,23.419,0,0,0,1.322-8.925c0-.011.011-.011.023-.011.73.729,17.906,17.632,44.019,6.839" transform="translate(-42.688 -336.988)" fill="#e11023"/>
  <path id="Path_2" data-name="Path 2" d="M200.156,408.3c10.68-25-18.51-24.676-18.51-24.676,2.131-22.283-12.868-30.99-13.746-31.481,19.98,7.26,18.1,27.127,18.1,27.127,35.094,2.245,14.156,29.03,14.156,29.03" transform="translate(-35.719 -341.248)" fill="#e11023"/>
  <path id="Path_3" data-name="Path 3" d="M204.946,376.834v-.01c-4.24-40.029-40.542-22.864-40.542-22.864,5.494,6.109,3.34,15.068,3.34,15.068s-4.263-.159-4.479-.171c.011-.16.011-.319.023-.467.011-.228.011-.467.011-.7a19.56,19.56,0,0,0-18.282-19.57c-.4-.023-.8-.034-1.208-.034H143.6a19.582,19.582,0,0,0-2.473.182,30.215,30.215,0,0,0-4.855,1.334,19.608,19.608,0,0,0-11.922,16.709v.034c-.034.456-.046.9-.046,1.345a19.288,19.288,0,0,0,.855,5.71c.034.114.068.228.1.341-.011.013,0,.024.011.035v.091a26.665,26.665,0,0,0,.9,2.929c12.093,27.412,45.067,13.393,45.067,13.393-2.359-8,5.779-10.908,5.779-10.908l11.926-5.811a.146.146,0,0,1,.19.057l1.437,2.448a.146.146,0,0,1-.062.2l-11.862,5.927a1.23,1.23,0,0,0-.6,1.6l.091.217a1.216,1.216,0,0,0,1.687.615l11.634-5.93a.146.146,0,0,1,.195.064l1.165,2.237a.144.144,0,0,1-.062.2l-11.291,5.827a1.234,1.234,0,0,0-.524,1.674l.137.239a1.227,1.227,0,0,0,1.675.5l10.666-5.869a.147.147,0,0,1,.2.057l1.09,1.957a.146.146,0,0,1-.057.2l-10.643,5.912a1.239,1.239,0,0,0-.638,1.084,1.211,1.211,0,0,0,.182.638,1.23,1.23,0,0,0,1.664.409l10.721-6.238a.146.146,0,0,1,.2.057l.928,1.707a.143.143,0,0,1-.041.189c-.366.258-2.007,1.351-9.256,5.949-10.779,6.838-15.068-1.14-15.068-1.14s-.034.012-.046.024c-22.408,15.923-42.742,3.8-45.363,2.1a21.849,21.849,0,0,1-10.747,11.85,6.1,6.1,0,0,1-2.816.689H83.115a4.162,4.162,0,0,0-4.067,5.034,4.3,4.3,0,0,0,4.254,3.275h54.507a4.264,4.264,0,0,1,4.316,3.895,4.162,4.162,0,0,1-4.141,4.4h-81.9a4.155,4.155,0,0,0,0,8.309H166.373a4.281,4.281,0,0,1,4.24,3.268,4.159,4.159,0,0,1-4.055,5.028h-64.6a4.168,4.168,0,0,0-4.143,3.933,4.3,4.3,0,0,0,4.366,4.376h61.037c.237,0,.479-.007.716-.025a41.836,41.836,0,0,0,14.88-3.917c15.567-7.365,22.93-22.5,24.389-25.816a1.343,1.343,0,0,0-.095-1.241c-6.195-10.251-1.2-21.754-1.089-22h5.494c-4.827,8.823-1.372,17.218-.146,19.673a1.01,1.01,0,0,0,1.161.523c14.6-3.9,17.2-17.26,17.506-19.224.023-.15.038-.3.047-.45,1.174-20.732-20.735-21.117-21.133-21.13M157.52,424.125a4.115,4.115,0,0,1-2.929,1.22h-6.029a4.154,4.154,0,0,1,0-8.309h6.029a4.151,4.151,0,0,1,2.929,7.089m58.847-15.262c10.68-25-18.51-24.676-18.51-24.676,2.131-22.283-12.868-30.99-13.746-31.481,19.98,7.261,18.1,27.127,18.1,27.127,35.094,2.245,14.156,29.03,14.156,29.03" transform="translate(-51.93 -341.814)" fill="#e11023"/>
  <path id="Path_4" data-name="Path 4" d="M163.413,389.459c-22.408,15.923-42.742,3.8-45.363,2.1a23.419,23.419,0,0,0,1.322-8.925c0-.011.011-.011.023-.011.73.729,17.906,17.632,44.019,6.839" transform="translate(-42.688 -336.988)" fill="#b7091d"/>
  <path id="Path_5" data-name="Path 5" d="M74.661,405.612a4.152,4.152,0,1,1-4.152-4.153,4.152,4.152,0,0,1,4.152,4.153" transform="translate(-49.913 -334.354)" fill="#e11023"/>
  <path id="Path_6" data-name="Path 6" d="M87.574,438.906H83.259a4.152,4.152,0,1,1,0-8.3h4.315a4.152,4.152,0,1,1,0,8.3" transform="translate(-48.131 -330.28)" fill="#e11023"/>
  <path id="Path_7" data-name="Path 7" d="M192.324,362.082s-5.577-13.27,4.925-19.5c0,0,5.9,13.351-4.925,19.5" transform="translate(-32.512 -342.584)" fill="#b7091d"/>
  <path id="Path_8" data-name="Path 8" d="M196.093,365.407s6.408-20.522,26.515-17.04c0,0-3.987,20.291-26.515,17.04" transform="translate(-31.778 -341.831)" fill="#b7091d"/>
  <path id="Path_9" data-name="Path 9" d="M200.156,408.3c10.68-25-18.51-24.676-18.51-24.676,2.131-22.283-12.868-30.99-13.746-31.481,19.98,7.26,18.1,27.127,18.1,27.127,35.094,2.245,14.156,29.03,14.156,29.03" transform="translate(-35.719 -341.248)" fill="#b7091d"/>
</svg>
